<svg width="120" height="120" fill="none" xmlns="http://www.w3.org/2000/svg"><g clip-path="url(#clip0)"><ellipse opacity=".6" cx="60.031" cy="59.998" rx="59.234" ry="59.201" fill="#FF9200"/><mask id="a" maskUnits="userSpaceOnUse" x="0" y="0" width="120" height="120"><ellipse cx="60.031" cy="59.998" rx="59.234" ry="59.201" fill="#fff"/></mask><g clip-path="url(#clip1)" fill-rule="evenodd" clip-rule="evenodd"><path d="M91.54 58.84c2.079.778 5.458-1.664 5.458-1.664-12.734-4.779-5.459-25.335-15.06-36.864-9.602-11.53-21.271-3.527-21.271-3.527s-11.67-8.003-21.271 3.527c-9.602 11.53-2.326 32.085-15.06 36.864 0 0 3.379 2.442 5.458 1.663 0 0 9.744 27.688-9.423 38.246 0 0 23.61 24.318 40.296 18.606 16.686 5.712 40.296-18.606 40.296-18.606-19.166-10.558-9.424-38.246-9.424-38.246z" fill="#41403E"/><path d="M101.749 95.718c-.763-3.662-12.98-10.526-16.952-11.44-3.971-.916-6.261 5.117-6.261 5.117L60.667 108.38 42.798 89.395s-2.29-6.033-6.261-5.118c-3.972.915-16.188 7.78-16.952 11.441-.763 3.661-5.497 27.763-.763 37.069h83.69c4.734-9.306 0-33.408-.763-37.069z" fill="#FF9200"/><path d="M69.386 70.41H51.947c0 17.558-10.676 18.749-10.676 18.749 0 16.628 19.396 19.221 19.396 19.221s19.396-2.593 19.396-19.221c0 0-10.677-1.191-10.677-18.75z" fill="#EDD0A8"/><path d="M60.667 76.819c-7.38 0-13.014-6.209-15.539-10.864-2.525-4.656-4.271-31.428 1.167-38.8 5.325-7.22 14.372-6.403 14.372-6.403s9.046-.817 14.373 6.403c5.437 7.372 3.69 34.144 1.165 38.8-2.525 4.655-8.158 10.864-15.538 10.864z" fill="#FCE5C5"/><path d="M42.892 52.564c22.44-3.209 27.654-19.03 27.654-19.03s.651 8.651 8.056 14.456c0 0 5.302-15.074-3.108-23.352-8.412-8.28-22.14-8.032-30.427.865-8.288 8.895-2.175 27.061-2.175 27.061z" fill="#41403E"/><path d="M34.01 110.242s-5.043 17.16 9.282 22.546h-11.46s-1.604-13.846 2.178-22.546zM87.324 110.242s5.043 17.16-9.282 22.546h11.46s1.604-13.846-2.178-22.546z" fill="#006F5C"/></g></g><defs><clipPath id="clip0"><path fill="#fff" d="M0 0h120v120H0z"/></clipPath><clipPath id="clip1"><path fill="#fff" transform="translate(16.745 13.989)" d="M0 0h88.188v118.933H0z"/></clipPath></defs></svg>